<?xml version="1.0" encoding="utf-8"?>
<!-- Generator: Adobe Illustrator 27.1.1, SVG Export Plug-In . SVG Version: 6.00 Build 0)  -->
<svg version="1.1" id="Layer_1" xmlns="http://www.w3.org/2000/svg" xmlns:xlink="http://www.w3.org/1999/xlink" x="0px" y="0px"
	 viewBox="0 0 74.1 50" style="enable-background:new 0 0 74.1 50;" xml:space="preserve">
<style type="text/css">
	.st0{fill:#00ACD4;}
</style>
<g>
	<g>
		<path class="st0" d="M33,33.8c0.26,0,0.52-0.09,0.75-0.26c0.2-0.18,0.31-0.42,0.31-0.72V21.46c0-0.17,0.14-0.3,0.3-0.3h2.11
			c0.52,0,0.94-0.42,0.94-0.94c0-0.52-0.42-0.94-0.94-0.94h-2.7c-1,0-1.81,0.81-1.81,1.81v11.73c0,0.3,0.1,0.55,0.31,0.72
			C32.47,33.71,32.72,33.8,33,33.8z"/>
		<path class="st0" d="M29.57,29.58c0.18-0.45,0.28-0.95,0.28-1.45c0-0.5-0.09-0.97-0.28-1.45c-0.23-0.47-0.5-0.85-0.82-1.15
			c-0.34-0.3-0.77-0.55-1.27-0.74c-0.54-0.17-1.09-0.26-1.66-0.26c-0.59,0-1.13,0.09-1.66,0.26c-0.51,0.2-0.93,0.45-1.27,0.76
			c-0.37,0.35-0.63,0.73-0.8,1.14c-0.2,0.42-0.3,0.9-0.3,1.45c0,0.56,0.1,1.05,0.3,1.45c0.17,0.43,0.44,0.81,0.8,1.13
			c0.35,0.33,0.77,0.58,1.27,0.74c0.47,0.19,1,0.28,1.66,0.28c0.61,0,1.17-0.09,1.66-0.26c0.48-0.16,0.92-0.42,1.27-0.76
			C29.08,30.41,29.35,30.04,29.57,29.58z M27.66,28.85c-0.07,0.22-0.19,0.45-0.34,0.63c-0.17,0.19-0.37,0.34-0.59,0.44
			c-0.24,0.11-0.54,0.17-0.91,0.17c-0.36,0-0.65-0.05-0.89-0.17c-0.26-0.1-0.47-0.26-0.61-0.44c-0.15-0.15-0.26-0.37-0.34-0.63
			c-0.07-0.24-0.11-0.48-0.11-0.74c0-0.24,0.04-0.49,0.11-0.72c0.08-0.23,0.19-0.43,0.34-0.61c0.14-0.17,0.35-0.32,0.61-0.44
			c0.28-0.11,0.57-0.17,0.89-0.17c0.33,0,0.63,0.06,0.91,0.17c0.22,0.11,0.42,0.26,0.59,0.44c0.17,0.22,0.28,0.42,0.34,0.62
			c0.07,0.23,0.11,0.48,0.11,0.72C27.77,28.38,27.74,28.61,27.66,28.85z"/>
		<path class="st0" d="M30.63,23.23c0.15-0.29,0.14-0.62-0.03-0.9c-0.17-0.28-0.46-0.44-0.78-0.44h-8.03c-0.5,0-0.92,0.41-0.92,0.92
			c0,0.5,0.41,0.92,0.92,0.92h8.03C30.16,23.72,30.47,23.53,30.63,23.23z"/>
		<path class="st0" d="M27.8,21.11c0.34,0,0.65-0.19,0.81-0.49c0.15-0.29,0.14-0.62-0.03-0.9c-0.17-0.28-0.46-0.44-0.78-0.44h-4.01
			c-0.5,0-0.91,0.41-0.91,0.92c0,0.5,0.41,0.92,0.91,0.92H27.8z"/>
		<path class="st0" d="M37.41,36.42c0-0.52-0.42-0.94-0.94-0.94h-2.7c-1,0-1.81,0.81-1.81,1.81v11.73c0,0.3,0.1,0.55,0.31,0.72
			C32.47,49.91,32.72,50,33,50c0.26,0,0.52-0.09,0.75-0.26c0.2-0.18,0.3-0.42,0.3-0.72V37.66c0-0.17,0.14-0.3,0.3-0.3h2.11
			C36.99,37.36,37.41,36.94,37.41,36.42z"/>
		<path class="st0" d="M28.75,41.73c-0.34-0.3-0.77-0.55-1.27-0.74c-0.54-0.17-1.09-0.26-1.66-0.26c-0.59,0-1.13,0.09-1.66,0.26
			c-0.51,0.2-0.93,0.45-1.27,0.76c-0.37,0.35-0.63,0.73-0.8,1.14c-0.2,0.42-0.3,0.9-0.3,1.45c0,0.56,0.1,1.05,0.3,1.45
			c0.17,0.43,0.43,0.81,0.8,1.13c0.35,0.33,0.77,0.58,1.27,0.74c0.47,0.19,1,0.28,1.66,0.28c0.61,0,1.17-0.09,1.66-0.26
			c0.48-0.16,0.92-0.42,1.27-0.76c0.33-0.3,0.6-0.67,0.82-1.13c0.18-0.45,0.28-0.95,0.28-1.45c0-0.5-0.09-0.97-0.28-1.45
			C29.34,42.41,29.07,42.03,28.75,41.73z M27.66,45.05c-0.07,0.22-0.19,0.45-0.34,0.63c-0.17,0.19-0.37,0.34-0.59,0.44
			c-0.24,0.11-0.54,0.17-0.91,0.17c-0.36,0-0.65-0.05-0.89-0.17c-0.26-0.1-0.47-0.26-0.61-0.44c-0.15-0.15-0.26-0.37-0.34-0.63
			c-0.07-0.24-0.11-0.48-0.11-0.74c0-0.24,0.04-0.49,0.11-0.72c0.08-0.23,0.19-0.43,0.34-0.61c0.14-0.17,0.35-0.32,0.61-0.44
			c0.28-0.11,0.57-0.17,0.89-0.17c0.33,0,0.63,0.06,0.91,0.17c0.22,0.11,0.42,0.26,0.59,0.44c0.17,0.22,0.28,0.42,0.34,0.62
			c0.07,0.23,0.11,0.48,0.11,0.72C27.77,44.57,27.74,44.81,27.66,45.05z"/>
		<path class="st0" d="M29.81,38.09h-8.03c-0.5,0-0.92,0.41-0.92,0.92c0,0.5,0.41,0.92,0.92,0.92h8.03c0.34,0,0.65-0.19,0.81-0.49
			c0.15-0.29,0.14-0.62-0.03-0.9C30.43,38.25,30.14,38.09,29.81,38.09z"/>
		<path class="st0" d="M27.8,35.48H23.8c-0.51,0-0.92,0.41-0.92,0.92c0,0.5,0.41,0.92,0.92,0.92h4.01c0.34,0,0.65-0.19,0.81-0.49
			c0.15-0.29,0.14-0.62-0.03-0.9C28.42,35.64,28.12,35.48,27.8,35.48z"/>
		<path class="st0" d="M40.97,35.25c-0.22-0.17-0.48-0.26-0.75-0.26c-0.27,0-0.51,0.08-0.73,0.26c-0.22,0.17-0.32,0.41-0.32,0.72
			v2.52c0,0.46,0.13,0.82,0.38,1.06c0.23,0.25,0.62,0.37,1.19,0.37h8.64c0.25,0,0.46-0.08,0.63-0.24c0.16-0.17,0.24-0.35,0.24-0.56
			c0-0.22-0.08-0.43-0.23-0.59c-0.18-0.15-0.38-0.22-0.63-0.22h-7.42c-0.25,0-0.42-0.05-0.51-0.16c-0.11-0.1-0.15-0.15-0.15-0.4
			v-1.78C41.27,35.66,41.17,35.42,40.97,35.25z"/>
		<path class="st0" d="M51.18,40.88H37.84c-0.29,0-0.51,0.08-0.65,0.24c-0.16,0.15-0.24,0.34-0.24,0.57c0,0.27,0.07,0.45,0.24,0.58
			c0.13,0.15,0.34,0.22,0.64,0.22h13.34c0.28,0,0.49-0.07,0.65-0.23c0.16-0.13,0.23-0.32,0.23-0.57c0-0.22-0.08-0.41-0.24-0.57
			C51.66,40.97,51.44,40.88,51.18,40.88z"/>
		<path class="st0" d="M49.6,48.44h-8.5l0-0.26c0-0.02-0.01-0.17-0.01-0.19v-0.17c0-0.1,0.01-0.22,0.1-0.25
			c0.06-0.05,0.16-0.08,0.36-0.08h6.47h0.53c0.54,0,0.95-0.13,1.21-0.37c0.24-0.24,0.36-0.6,0.36-1.06v-1.17
			c0-0.45-0.12-0.8-0.36-1.06c-0.26-0.25-0.67-0.37-1.21-0.37h-8.71c-0.27,0-0.47,0.08-0.63,0.24c-0.16,0.15-0.24,0.33-0.24,0.56
			c0,0.26,0.08,0.44,0.24,0.56c0.15,0.14,0.35,0.21,0.63,0.21h7.72c0.15,0,0.25,0.02,0.33,0.05c0.08,0.04,0.12,0.13,0.12,0.28v0.57
			h-7.47c-0.54,0-0.94,0.13-1.19,0.37c-0.26,0.26-0.38,0.59-0.38,1.06v1.22c0,0.46,0.12,0.8,0.38,1.06C39.6,49.87,40,50,40.55,50
			h0.28h0.28h8.5c0.25,0,0.46-0.08,0.63-0.24c0.15-0.16,0.24-0.36,0.24-0.56c0-0.24-0.08-0.43-0.23-0.56
			C50.06,48.5,49.86,48.44,49.6,48.44z"/>
		<path class="st0" d="M40.27,22.22c-0.55,0-0.95,0.13-1.19,0.37c-0.26,0.26-0.38,0.6-0.38,1.06v1.53c0,0.47,0.13,1.07,0.38,1.31
			c0.23,0.25,0.62,0.37,1.19,0.37h9.07c0.25,0,0.46-0.08,0.63-0.24c0.16-0.16,0.24-0.47,0.24-0.68c0-0.22-0.08-0.54-0.23-0.7
			c-0.19-0.14-0.39-0.21-0.63-0.21h-8.07c-0.12,0-0.25-0.01-0.33-0.09c-0.08-0.04-0.12-0.15-0.12-0.33v-0.4
			c0-0.12,0.01-0.24,0.1-0.32c0.06-0.06,0.18-0.09,0.36-0.09h6.74h0.53c0.57,0,0.95-0.12,1.21-0.37c0.24-0.24,0.36-0.6,0.36-1.06
			v-1.46c0-0.46-0.12-1.05-0.36-1.31c-0.26-0.25-0.67-0.37-1.21-0.37h-8.97c-0.27,0-0.47,0.08-0.63,0.24
			c-0.16,0.15-0.24,0.46-0.24,0.68c0,0.25,0.07,0.56,0.24,0.68c0.14,0.15,0.34,0.22,0.63,0.22h7.98c0.15,0,0.26,0.04,0.34,0.08
			c0.08,0.07,0.12,0.18,0.12,0.34v0.07c0,0,0,0.01,0,0.01v0.66H40.27z"/>
		<path class="st0" d="M51.39,28.34l0.04-0.03h-0.25H44.2h-0.54h-4.19h-1.4c-0.44,0-0.81,0.36-0.81,0.81c0,0.44,0.36,0.81,0.81,0.81
			h5.43c0.13,0,0.24,0.11,0.24,0.24v2.66c0,0.58,0.47,1.06,1.06,1.06c0.58,0,1.06-0.47,1.06-1.06v-2.89c0,0,0,0,0-0.01h3.51h2.26
			c-0.16,0,0.05-0.07,0.21-0.23c0.16-0.13,0.23-0.32,0.23-0.57c0-0.22-0.08-0.41-0.24-0.57C51.71,28.44,51.55,28.38,51.39,28.34z"/>
		<path class="st0" d="M18.08,47.39H2.86c-0.53,0-0.97-0.43-0.97-0.97V2.82c0-0.53,0.43-0.97,0.97-0.97h45.1
			c0.53,0,0.97,0.43,0.97,0.97v12.28c0,0.51,0.41,0.93,0.93,0.93c0.51,0,0.93-0.41,0.93-0.93V2.82c0-1.55-1.26-2.82-2.82-2.82H2.86
			C1.31,0,0.04,1.26,0.04,2.82v43.61c0,1.55,1.26,2.82,2.82,2.82h15.22c0.51,0,0.93-0.41,0.93-0.93
			C19.01,47.81,18.59,47.39,18.08,47.39z"/>
	</g>
	<g>
		<polygon class="st0" points="57.13,42.92 55.83,42.92 55.83,41.51 55.16,41.51 55.16,44.95 55.83,44.95 55.83,43.51 57.13,43.51 
			57.13,44.95 57.8,44.95 57.8,41.51 57.13,41.51 		"/>
		<rect x="68.86" y="42.14" class="st0" width="0.71" height="0.71"/>
		<rect x="68.86" y="43.59" class="st0" width="0.71" height="0.71"/>
		<polygon class="st0" points="57.13,47.47 55.83,47.47 55.83,46.06 55.16,46.06 55.16,49.5 55.83,49.5 55.83,48.06 57.13,48.06 
			57.13,49.5 57.8,49.5 57.8,46.06 57.13,46.06 		"/>
		<polygon class="st0" points="64.17,48.17 62.67,46.06 62.07,46.06 62.07,49.5 62.74,49.5 62.74,47.39 64.24,49.5 64.84,49.5 
			64.84,46.06 64.17,46.06 		"/>
		<polygon class="st0" points="65.52,49.5 67.78,49.5 67.78,48.9 66.19,48.9 66.19,48.07 67.78,48.07 67.78,47.47 66.19,47.47 
			66.19,46.66 67.78,46.66 67.78,46.06 65.52,46.06 		"/>
		<polygon class="st0" points="72.4,48.85 72.4,46.01 71.73,46.01 71.73,49.45 74.1,49.45 74.1,48.85 		"/>
		<path class="st0" d="M62.74,43.58h0.35l0.94,1.37h0.78l-0.97-1.39c0.48-0.09,0.85-0.51,0.85-1.02c0-0.57-0.46-1.03-1.03-1.03
			h-1.58v3.44h0.67V43.58z M62.74,42.11h0.84c0.24,0,0.44,0.2,0.44,0.44s-0.2,0.44-0.44,0.44h-0.84V42.11z"/>
		<path class="st0" d="M59.67,41.51l-1.39,3.44h0.7l0.21-0.53h1.48l0.21,0.53h0.7l-1.39-3.44H59.67z M59.44,43.82l0.51-1.29
			l0.5,1.29H59.44z"/>
		<path class="st0" d="M59.67,46.06l-1.39,3.44h0.7l0.21-0.53h1.48l0.21,0.53h0.7l-1.39-3.44H59.67z M59.44,48.37l0.51-1.29
			l0.5,1.29H59.44z"/>
		<path class="st0" d="M70.48,48.12c0,0.4-0.33,0.73-0.73,0.73c-0.4,0-0.73-0.33-0.73-0.73v-2.11h-0.67v2.04
			c0,0.77,0.63,1.4,1.4,1.4c0.77,0,1.4-0.63,1.4-1.4v-2.04h-0.67V48.12z"/>
		<path class="st0" d="M67.39,43.62c0,0.4-0.33,0.73-0.73,0.73c-0.4,0-0.73-0.33-0.73-0.73v-2.11h-0.67v2.04
			c0,0.77,0.63,1.4,1.4,1.4c0.77,0,1.4-0.63,1.4-1.4v-2.04h-0.67V43.62z"/>
	</g>
</g>
</svg>
